<?xml version="1.0" encoding="utf-8"?>
<!-- Generator: Adobe Illustrator 19.0.0, SVG Export Plug-In . SVG Version: 6.00 Build 0)  -->
<svg version="1.1" id="Layer_1" xmlns="http://www.w3.org/2000/svg" xmlns:xlink="http://www.w3.org/1999/xlink" x="0px" y="0px"
	 viewBox="-382 256 194 50" style="enable-background:new -382 256 194 50;" xml:space="preserve">
<style type="text/css">
	.st0{fill:#FF9500;}
	.st1{fill:#82CF17;}
	.st2{fill:#FF0080;}
	.st3{fill:#25AFF4;}
</style>
<g id="logo">
	<g id="A_1_">
		<polygon class="st0" points="-202.8,304 -238.5,304 -234,294.3 -219.1,294.3 -230.8,268.1 -246.8,304 -258.8,304 -238.3,258 
			-223.3,258 		"/>
	</g>
</g>
<polygon id="bar2_7_" class="st1" points="-362.5,304 -350.5,304 -330,258 -342,258 "/>
<g>
	<polygon class="st2" points="-255.2,284.9 -246.7,304 -258.7,304 -273.2,271.5 -287.7,304 -299.7,304 -279.2,258 -267.2,258 
		-261.3,271.2 -255.7,258 -243.7,258 -255.2,284.9 	"/>
</g>
<g>
	<polygon class="st3" points="-308.9,294.3 -300.7,294.3 -305.2,304 -342.9,304 -338.3,294.3 -320.9,294.3 -309,267.7 -327.9,267.7 
		-323.3,258 -292.7,258 	"/>
</g>
<circle id="A-crossbar_1_" class="st2" cx="-272.7" cy="291.5" r="5"/>
</svg>
